PathFileType	4	(X/Y/Z)	/Users/itak/Documents/Research/Walk-IL/dataset/trc/00259_00009.trc
DataRate	CameraRate	NumFrames	NumMarkers	Units	OrigDataRate	OrigDataStartFrame	OrigNumFrames
100.000000	100.000000	4	54	mm	100.000000	139	556
Frame#	Time	RPSI			LPSI			L3			STRN			T10			C7			CLAV			RBAK			LBAK			LSHO			LUPA			LAEL			LAOL			LWTS			LWPS			LFRA			LIFD			LHPS			LHTS			RSHO			RUPA			RAEL			RAOL			RWTS			RWPS			RFRA			RIFD			RHTS			RHPS			RBHD			LFHD			RFHD			LBHD			LHIP			RHIP			RASI			LASI			LKNE			LTHI			LANK			LTIP			LTOE			LMT1			LMT5			LHEE			RKNE			RTHI			RANK			RTIP			RTOE			RMT5			RMT1			RHEE			*53			
		X1	Y1	Z1	X2	Y2	Z2	X3	Y3	Z3	X4	Y4	Z4	X5	Y5	Z5	X6	Y6	Z6	X7	Y7	Z7	X8	Y8	Z8	X9	Y9	Z9	X10	Y10	Z10	X11	Y11	Z11	X12	Y12	Z12	X13	Y13	Z13	X14	Y14	Z14	X15	Y15	Z15	X16	Y16	Z16	X17	Y17	Z17	X18	Y18	Z18	X19	Y19	Z19	X20	Y20	Z20	X21	Y21	Z21	X22	Y22	Z22	X23	Y23	Z23	X24	Y24	Z24	X25	Y25	Z25	X26	Y26	Z26	X27	Y27	Z27	X28	Y28	Z28	X29	Y29	Z29	X30	Y30	Z30	X31	Y31	Z31	X32	Y32	Z32	X33	Y33	Z33	X34	Y34	Z34	X35	Y35	Z35	X36	Y36	Z36	X37	Y37	Z37	X38	Y38	Z38	X39	Y39	Z39	X40	Y40	Z40	X41	Y41	Z41	X42	Y42	Z42	X43	Y43	Z43	X44	Y44	Z44	X45	Y45	Z45	X46	Y46	Z46	X47	Y47	Z47	X48	Y48	Z48	X49	Y49	Z49	X50	Y50	Z50	X51	Y51	Z51	X52	Y52	Z52	X53	Y53	Z53	X54	Y54	Z54	

140	1.39	-1429.938842773438	1051.88623046875	643.9466552734375	-1408.0849609375	1055.2783203125	524.8589477539062	-1415.295043945312	1134.672485351562	563.5022583007812	-1162.572143554688	1316.5087890625	600.458740234375	-1416.2734375	1261.114379882812	564.8032836914062	-1347.23193359375	1521.147583007812	570.7653198242188	-1184.25537109375	1435.428588867188	598.9940185546875	-1435.1953125	1384.154174804688	632.7186279296875	-1351.320190429688	1484.4150390625	458.7353210449219	-1254.488403320312	1483.845703125	417.4056701660156	-1276.907104492188	1367.451293945312	333.0916137695312	-1268.486694335938	1154.462890625	310.6583557128906	-1348.072998046875	1142.365112304688	345.7828063964844	-1191.203369140625	922.7322998046875	394.0398864746094	-1201.66943359375	902.7628173828125	312.0921630859375	-1245.813842773438	1046.429565429688	305.1898498535156	-1182.606689453125	727.570556640625	394.1974792480469	-1184.568603515625	815.080322265625	323.6862182617188	-1153.31298828125	822.2474365234375	383.6302185058594	-1317.827514648438	1483.033569335938	747.1345825195312	-1349.188598632812	1420.670288085938	811.1834106445312	-1381.108154296875	1141.544311523438	855.7992553710938	-1390.049072265625	1131.723999023438	760.7034301757812	-1233.457885742188	929.492431640625	857.662353515625	-1300.919921875	915.2852172851562	907.7604370117188	-1357.142822265625	1074.382690429688	877.8606567382812	-1214.459838867188	737.0332641601562	861.6220092773438	-1195.365112304688	810.9097290039062	888.4165649414062	-1259.30908203125	809.358642578125	923.5717163085938	-1313.046752929688	1671.793212890625	623.5203857421875	-1100.587036132812	1717.578979492188	557.02490234375	-1115.530029296875	1720.500122070312	655.781005859375	-1248.9375	1674.97705078125	498.4635314941406	-1288.65185546875	985.3194580078125	401.57666015625	-1349.579223632812	1014.689636230469	764.4276123046875	-1247.702270507812	1049.929077148438	740.2562255859375	-1194.974243164062	1024.745727539062	463.1959533691406	-1290.688354492188	500.8354797363281	476.8988952636719	-1279.804321289062	642.4705810546875	436.7408447265625	-1389.108154296875	36.71879196166992	518.1829223632812	-1346.044921875	278.4007263183594	483.6302185058594	-1180.344848632812	47.71287155151367	593.4295043945312	-1251.950561523438	40.05942153930664	630.4208984375	-1258.493774414062	42.30710983276367	514.7531127929688	-1456.466064453125	41.26296997070312	565.1613159179688	-1185.106079101562	539.192626953125	775.1892700195312	-1251.25	802.6868286132812	792.3685302734375	-1390.699462890625	88.19903564453125	752.4712524414062	-1197.151245117188	417.9433898925781	765.371337890625	-1181.71826171875	55.81342697143555	738.0120849609375	-1289.49658203125	60.75726318359375	789.5579833984375	-1229.648071289062	60.50438690185547	686.996826171875	-1443.517944335938	105.489990234375	687.0701293945312	nan	nan	nan	
141	1.4	-1428.363403320312	1051.706787109375	643.8545532226562	-1406.793823242188	1055.218994140625	524.6927490234375	-1413.788208007812	1134.523071289062	563.284912109375	-1160.92138671875	1316.182250976562	600.1654663085938	-1414.71142578125	1260.970825195312	564.4315795898438	-1345.482421875	1520.956665039062	570.4407958984375	-1182.564697265625	1435.128662109375	598.72509765625	-1433.567260742188	1383.9697265625	632.2379760742188	-1349.531005859375	1484.267700195312	458.4087524414062	-1252.695434570312	1483.615844726562	417.1372375488281	-1275.007202148438	1367.297485351562	332.7532958984375	-1266.429809570312	1154.291137695312	310.2054748535156	-1346.132080078125	1142.152099609375	345.06689453125	-1189.058227539062	922.7942504882812	394.0845947265625	-1199.227294921875	902.755615234375	312.0518188476562	-1243.54833984375	1046.298095703125	304.9136047363281	-1180.0888671875	727.6694946289062	394.5431518554688	-1181.862426757812	815.0543212890625	323.8572998046875	-1150.88330078125	822.3679809570312	383.9365844726562	-1316.23291015625	1482.724609375	746.8281860351562	-1347.728271484375	1420.338012695312	810.79541015625	-1379.964233398438	1141.291748046875	855.2764892578125	-1388.751098632812	1131.474975585938	760.214111328125	-1232.592041015625	929.0465087890625	857.3652954101562	-1300.097900390625	914.9140014648438	907.3114013671875	-1356.129028320312	1074.076171875	877.3770751953125	-1213.768798828125	736.5157470703125	861.2586059570312	-1194.596557617188	810.477783203125	888.1716918945312	-1258.548828125	808.9286499023438	923.1773071289062	-1311.207641601562	1671.56103515625	623.4119873046875	-1098.823120117188	1717.319702148438	556.614990234375	-1113.612426757812	1720.248901367188	655.3863525390625	-1247.26953125	1674.753051757812	498.2550048828125	-1287.749145507812	985.1143798828125	401.0601196289062	-1347.602783203125	1014.656311035156	764.157470703125	-1246.00244140625	1049.63525390625	739.6522827148438	-1193.98388671875	1024.421264648438	462.424560546875	-1291.080810546875	500.6973266601562	476.2265625	-1279.91162109375	642.3450927734375	435.9838562011719	-1389.099487304688	36.68052673339844	518.1757202148438	-1346.472534179688	278.261474609375	483.1997375488281	-1180.411376953125	47.71675491333008	593.3935546875	-1251.979614257812	40.13090133666992	630.33935546875	-1258.520629882812	42.28926086425781	514.6582641601562	-1456.54052734375	41.18881225585938	565.1102294921875	-1179.254638671875	540.449951171875	775.3292236328125	-1247.788940429688	803.4517211914062	792.030517578125	-1385.331665039062	89.74587249755859	752.8355712890625	-1191.112915039062	419.1613464355469	765.3587036132812	-1176.423461914062	57.56522369384766	737.3931884765625	-1283.914672851562	62.46319580078125	789.4654541015625	-1224.617553710938	62.20373916625977	686.6921997070312	-1438.47021484375	106.9553375244141	687.669189453125	nan	nan	nan	
142	1.41	-1426.69091796875	1051.5703125	643.7940673828125	-1405.424682617188	1055.184814453125	524.5474243164062	-1412.1962890625	1134.3994140625	563.1138305664062	-1159.199584960938	1315.884155273438	599.873291015625	-1413.091674804688	1260.853393554688	564.1192626953125	-1343.676513671875	1520.785888671875	570.16943359375	-1180.808349609375	1434.864135742188	598.4592895507812	-1431.859497070312	1383.807373046875	631.8425903320312	-1347.720581054688	1484.142944335938	458.131103515625	-1250.886474609375	1483.4140625	416.9031982421875	-1273.087158203125	1367.1630859375	332.4656677246094	-1264.3076171875	1154.1474609375	309.8225402832031	-1344.1064453125	1141.943481445312	344.4389038085938	-1186.776000976562	922.8842163085938	394.1481628417969	-1196.607055664062	902.8030395507812	312.0579223632812	-1241.189819335938	1046.193237304688	304.6894226074219	-1177.478393554688	727.8102416992188	394.8574523925781	-1179.058715820312	815.0579833984375	324.029296875	-1148.343383789062	822.517822265625	384.2308349609375	-1314.521606445312	1482.440673828125	746.5615234375	-1346.121337890625	1420.01904296875	810.4605712890625	-1378.673217773438	1141.077270507812	854.8036499023438	-1387.39111328125	1131.280151367188	759.7465209960938	-1231.715454101562	928.5427856445312	856.98095703125	-1299.216552734375	914.5167846679688	906.8360595703125	-1355.005493164062	1073.783447265625	876.9017333984375	-1213.165893554688	735.99169921875	860.75244140625	-1193.84521484375	809.9071655273438	887.7679443359375	-1257.820922851562	808.4735717773438	922.7110595703125	-1309.286499023438	1671.379516601562	623.3270874023438	-1096.97021484375	1717.063110351562	556.2196655273438	-1111.593505859375	1719.99609375	654.9988403320312	-1245.520751953125	1674.552734375	498.07080078125	-1286.77587890625	984.9002075195312	400.5885620117188	-1345.480834960938	1014.669738769531	763.9139404296875	-1244.16357421875	1049.405151367188	739.0855102539062	-1192.91845703125	1024.124145507812	461.6910095214844	-1291.29931640625	500.5605773925781	475.6258544921875	-1279.924682617188	642.214599609375	435.2893371582031	-1389.096069335938	36.64492797851562	518.1719360351562	-1346.755493164062	278.1415405273438	482.8187255859375	-1180.47216796875	47.71945953369141	593.3626708984375	-1252.010986328125	40.19279861450195	630.2660522460938	-1258.547485351562	42.26463317871094	514.5722045898438	-1456.596801757812	41.09455871582031	565.06884765625	-1173.59033203125	541.7053833007812	775.3582153320312	-1244.338989257812	804.2210693359375	791.6951293945312	-1379.28662109375	90.86837768554688	753.2034912109375	-1185.126953125	420.3384094238281	765.2612915039062	-1170.388061523438	59.36278915405273	736.797607421875	-1277.59228515625	63.96648406982422	789.400146484375	-1218.8798828125	63.82338714599609	686.4229736328125	-1432.7705078125	107.8323287963867	688.2542114257812	nan	nan	nan	
143	1.42	-1424.92822265625	1051.479248046875	643.7694091796875	-1403.978759765625	1055.17138671875	524.4302978515625	-1410.522338867188	1134.294799804688	562.9863891601562	-1157.409790039062	1315.617797851562	599.5755615234375	-1411.4072265625	1260.75830078125	563.8667602539062	-1341.812744140625	1520.636596679688	569.9522094726562	-1178.982299804688	1434.6328125	598.1975708007812	-1430.066162109375	1383.667236328125	631.5345458984375	-1345.890502929688	1484.03857421875	457.9025268554688	-1249.062744140625	1483.249145507812	416.6987609863281	-1271.154052734375	1367.051635742188	332.224609375	-1262.125854492188	1154.033813476562	309.5149536132812	-1342.0009765625	1141.74560546875	343.9088745117188	-1184.359985351562	923.00244140625	394.2272338867188	-1193.816162109375	902.9027099609375	312.111572265625	-1238.749755859375	1046.1171875	304.5208435058594	-1174.768920898438	727.9863891601562	395.1246948242188	-1176.16748046875	815.1028442382812	324.1978759765625	-1145.691528320312	822.7063598632812	384.5020141601562	-1312.688598632812	1482.184204101562	746.3352661132812	-1344.360717773438	1419.71923828125	810.1782836914062	-1377.2373046875	1140.897827148438	854.3804931640625	-1385.9697265625	1131.137451171875	759.3026123046875	-1230.8095703125	927.98974609375	856.5116577148438	-1298.275390625	914.1005249023438	906.337158203125	-1353.7646484375	1073.505737304688	876.4389038085938	-1212.650024414062	735.4481201171875	860.108154296875	-1193.106079101562	809.2083129882812	887.2162475585938	-1257.124267578125	807.9939575195312	922.16650390625	-1307.277954101562	1671.247192382812	623.2659301757812	-1095.026733398438	1716.807495117188	555.8346557617188	-1109.471313476562	1719.738525390625	654.61767578125	-1243.693603515625	1674.381469726562	497.9068298339844	-1285.737548828125	984.6831665039062	400.1575012207031	-1343.232666015625	1014.726501464844	763.6918334960938	-1242.185668945312	1049.232421875	738.5578002929688	-1191.762573242188	1023.863525390625	460.9986572265625	-1291.305419921875	500.4217529296875	475.1137390136719	-1279.811157226562	642.0728149414062	434.6757507324219	-1389.099243164062	36.61345291137695	518.1678466796875	-1346.84619140625	278.0529479980469	482.5013122558594	-1180.526000976562	47.72200393676758	593.3351440429688	-1252.048461914062	40.23804473876953	630.2088623046875	-1258.5791015625	42.23685073852539	514.4962158203125	-1456.638061523438	40.99525833129883	565.0354614257812	-1168.113159179688	542.9542846679688	775.2792358398438	-1240.917846679688	804.9915161132812	791.3573608398438	-1372.56787109375	91.5621337890625	753.5826416015625	-1179.18603515625	421.4756469726562	765.0943603515625	-1163.62939453125	61.15586853027344	736.274658203125	-1270.55712890625	65.24117279052734	789.3841552734375	-1212.43408203125	65.30206298828125	686.2062377929688	-1426.399047851562	108.1317596435547	688.8159790039062	nan	nan	nan	
